# xmcd CD database file generated by OrangeCD 5.2
#
# Track frame offsets:
#	150
#	12807
#	26857
#	38955
#	53882
#	67522
#	82372
#	96142
#	111017
#	124782
#	138360
#	151397
#	163322
#	175540
#	189175
#	202280
#	214267
#	231725
#	246077
#	259607
#
# Disc length: 3606 seconds
#
# Revision: 0
# Processed by: cddbd v1.5.1PL0 Copyright (c) Steve Scherf et al.
# Submitted via: OrangeCD 5.2
#
DISCID=1c0e1414
DTITLE=Various Artist - Jumpin' Jive  Disc 1
DYEAR=1995
DGENRE=Big Band/Swing
TTITLE0=Cab Calloway - The Jumpin' Jive
TTITLE1=Louis Jordan - Five Guys Named Mo
TTITLE2=Wynonie Harris - Hurry Hurry
TTITLE3=Fats Waller - All That Meat And No Potatoes
TTITLE4=Eddie "Cleanhead" Vinson - Is You Is Or Is You Ain't My Baby
TTITLE5=Lil Green - Why Don't You Do Right
TTITLE6=Big Joe Turner - Watch That Jive
TTITLE7=Woddy Herman - Caldonia
TTITLE8=Saunders King - B Flat Blues
TTITLE9=Hot Lips Page - Pagin' Mr. Page
TTITLE10=Kay Starr - Share Croppin Blues
TTITLE11=Fats Waller - Tain't What You Do (It's The Way You Do It)
TTITLE12=Dinah Washington - Evil Gal Blues
TTITLE13=Tiny Bradshaw - Shout Sister Shout
TTITLE14=Louis Jordan - At The Swing Cat's Ball
TTITLE15=Andy Kirk and His 12 Clouds Of Joy Vocal June Richmond  - Hey Lawdy Mama
TTITLE16=Stuff Smith and His Onyx Club Boys Vocal Jonah Jones - You'se A Viper
TTITLE17=Gene Krupa and Roy Eldridge - Knock Me A Kiss
TTITLE18=The Buck Ram All Stars - Ram Session
TTITLE19=Cab Calloway - Boogie Woogie Dance
EXTD=
EXTT0=
EXTT1=
EXTT2=
EXTT3=
EXTT4=
EXTT5=
EXTT6=
EXTT7=
EXTT8=
EXTT9=
EXTT10=
EXTT11=
EXTT12=
EXTT13=
EXTT14=
EXTT15=
EXTT16=
EXTT17=
EXTT18=
EXTT19=
PLAYORDER=
